<svg width="48" height="12" viewBox="0 0 48 12" fill="none" xmlns="http://www.w3.org/2000/svg">
<g clip-path="url(#clip0_1_350)">
<path d="M0.5 5.5C3.26143 5.5 5.5 3.26143 5.5 0.5H6.5C6.5 3.26143 8.7386 5.5 11.5 5.5V6.5C8.7386 6.5 6.5 8.7386 6.5 11.5H5.5C5.5 8.7386 3.26143 6.5 0.5 6.5V5.5Z" fill="white"/>
</g>
<g clip-path="url(#clip1_1_350)">
<path d="M21 8.5C22.3807 8.5 23.5 7.3807 23.5 6C23.5 4.61929 22.3807 3.5 21 3.5C19.6193 3.5 18.5 4.61929 18.5 6C18.5 7.3807 19.6193 8.5 21 8.5Z" fill="white"/>
</g>
<g clip-path="url(#clip2_1_350)">
<path d="M33 8.5C34.3807 8.5 35.5 7.3807 35.5 6C35.5 4.61929 34.3807 3.5 33 3.5C31.6193 3.5 30.5 4.61929 30.5 6C30.5 7.3807 31.6193 8.5 33 8.5Z" fill="white"/>
</g>
<g clip-path="url(#clip3_1_350)">
<path d="M45 8.5C46.3807 8.5 47.5 7.3807 47.5 6C47.5 4.61929 46.3807 3.5 45 3.5C43.6193 3.5 42.5 4.61929 42.5 6C42.5 7.3807 43.6193 8.5 45 8.5Z" fill="white"/>
</g>
<defs>
<clipPath id="clip0_1_350">
<rect width="12" height="12" fill="white"/>
</clipPath>
<clipPath id="clip1_1_350">
<rect width="6" height="6" fill="white" transform="translate(18 3)"/>
</clipPath>
<clipPath id="clip2_1_350">
<rect width="6" height="6" fill="white" transform="translate(30 3)"/>
</clipPath>
<clipPath id="clip3_1_350">
<rect width="6" height="6" fill="white" transform="translate(42 3)"/>
</clipPath>
</defs>
</svg>
