<svg width="108" height="12" viewBox="0 0 108 12" fill="none" xmlns="http://www.w3.org/2000/svg">
<g clip-path="url(#clip0_1_456)">
<path d="M3 8.5C4.3807 8.5 5.5 7.3807 5.5 6C5.5 4.61929 4.3807 3.5 3 3.5C1.61929 3.5 0.5 4.61929 0.5 6C0.5 7.3807 1.61929 8.5 3 8.5Z" fill="white"/>
</g>
<g clip-path="url(#clip1_1_456)">
<path d="M15 8.5C16.3807 8.5 17.5 7.3807 17.5 6C17.5 4.61929 16.3807 3.5 15 3.5C13.6193 3.5 12.5 4.61929 12.5 6C12.5 7.3807 13.6193 8.5 15 8.5Z" fill="white"/>
</g>
<g clip-path="url(#clip2_1_456)">
<path d="M24.5 5.5C27.2614 5.5 29.5 3.26143 29.5 0.5H30.5C30.5 3.26143 32.7386 5.5 35.5 5.5V6.5C32.7386 6.5 30.5 8.7386 30.5 11.5H29.5C29.5 8.7386 27.2614 6.5 24.5 6.5V5.5Z" fill="white"/>
</g>
<g clip-path="url(#clip3_1_456)">
<path d="M45 8.5C46.3807 8.5 47.5 7.3807 47.5 6C47.5 4.61929 46.3807 3.5 45 3.5C43.6193 3.5 42.5 4.61929 42.5 6C42.5 7.3807 43.6193 8.5 45 8.5Z" fill="white"/>
</g>
<g clip-path="url(#clip4_1_456)">
<path d="M57 8.5C58.3807 8.5 59.5 7.3807 59.5 6C59.5 4.61929 58.3807 3.5 57 3.5C55.6193 3.5 54.5 4.61929 54.5 6C54.5 7.3807 55.6193 8.5 57 8.5Z" fill="white"/>
</g>
<g clip-path="url(#clip5_1_456)">
<path d="M69 8.5C70.3807 8.5 71.5 7.3807 71.5 6C71.5 4.61929 70.3807 3.5 69 3.5C67.6193 3.5 66.5 4.61929 66.5 6C66.5 7.3807 67.6193 8.5 69 8.5Z" fill="white"/>
</g>
<g clip-path="url(#clip6_1_456)">
<path d="M81 8.5C82.3807 8.5 83.5 7.3807 83.5 6C83.5 4.61929 82.3807 3.5 81 3.5C79.6193 3.5 78.5 4.61929 78.5 6C78.5 7.3807 79.6193 8.5 81 8.5Z" fill="white"/>
</g>
<g clip-path="url(#clip7_1_456)">
<path d="M93 8.5C94.3807 8.5 95.5 7.3807 95.5 6C95.5 4.61929 94.3807 3.5 93 3.5C91.6193 3.5 90.5 4.61929 90.5 6C90.5 7.3807 91.6193 8.5 93 8.5Z" fill="white"/>
</g>
<g clip-path="url(#clip8_1_456)">
<path d="M105 8.5C106.381 8.5 107.5 7.3807 107.5 6C107.5 4.61929 106.381 3.5 105 3.5C103.619 3.5 102.5 4.61929 102.5 6C102.5 7.3807 103.619 8.5 105 8.5Z" fill="white"/>
</g>
<defs>
<clipPath id="clip0_1_456">
<rect width="6" height="6" fill="white" transform="translate(0 3)"/>
</clipPath>
<clipPath id="clip1_1_456">
<rect width="6" height="6" fill="white" transform="translate(12 3)"/>
</clipPath>
<clipPath id="clip2_1_456">
<rect width="12" height="12" fill="white" transform="translate(24)"/>
</clipPath>
<clipPath id="clip3_1_456">
<rect width="6" height="6" fill="white" transform="translate(42 3)"/>
</clipPath>
<clipPath id="clip4_1_456">
<rect width="6" height="6" fill="white" transform="translate(54 3)"/>
</clipPath>
<clipPath id="clip5_1_456">
<rect width="6" height="6" fill="white" transform="translate(66 3)"/>
</clipPath>
<clipPath id="clip6_1_456">
<rect width="6" height="6" fill="white" transform="translate(78 3)"/>
</clipPath>
<clipPath id="clip7_1_456">
<rect width="6" height="6" fill="white" transform="translate(90 3)"/>
</clipPath>
<clipPath id="clip8_1_456">
<rect width="6" height="6" fill="white" transform="translate(102 3)"/>
</clipPath>
</defs>
</svg>
