<svg width="24" height="24" viewBox="0 0 24 24" fill="none" xmlns="http://www.w3.org/2000/svg">
<path d="M13.2886 6.21313L18.2278 2.37154C18.6259 2.06192 19.1922 2.09718 19.5488 2.45379L22.543 5.44799C22.8997 5.8046 22.9349 6.37094 22.6253 6.76903L18.7847 11.7069C19.0778 12.8952 19.0836 14.1722 18.7444 15.438C17.8463 18.7898 14.8142 20.9987 11.5016 20.9987C8 20.9987 3.5 19.4968 1 17.9968C4.97978 14.9968 4.04722 13.1866 4.5 11.4968C5.55843 7.5467 9.34224 5.23947 13.2886 6.21313ZM16.7015 8.09173C16.7673 8.15518 16.8319 8.21976 16.8952 8.28545L18.0297 9.41996L20.5046 6.23798L18.7589 4.49222L15.5769 6.9671L16.7015 8.09173Z" fill="white"/>
</svg>
