<svg
  viewBox="0 0 24 24"
  fill="none"
  xmlns="http://www.w3.org/2000/svg"
>
  <defs>
    <linearGradient id="favicon-gradient" x1="0%" y1="0%" x2="100%" y2="100%">
      <stop offset="0%" style="stop-color:#dc2626;stop-opacity:1" />
      <stop offset="50%" style="stop-color:#f97316;stop-opacity:1" />
      <stop offset="100%" style="stop-color:#f59e0b;stop-opacity:1" />
    </linearGradient>
  </defs>
  
  <!-- Background with gradient -->
  <rect width="24" height="24" rx="4" fill="url(#favicon-gradient)" />
  
  <!-- Top Bar -->
  <path fill="white" d="M5 6C5 4.89543 5.89543 4 7 4H11C12.1046 4 13 4.89543 13 6C13 7.10457 12.1046 8 11 8H7C5.89543 8 5 7.10457 5 6Z" />

  <!-- Middle Bar (Longest - forming the arrow tip) -->
  <path fill="white" d="M5 12C5 10.8954 5.89543 10 7 10H17C18.1046 10 19 10.8954 19 12C19 13.1046 18.1046 14 17 14H7C5.89543 14 5 13.1046 5 12Z" />

  <!-- Bottom Bar -->
  <path fill="white" d="M5 18C5 16.8954 5.89543 16 7 16H11C12.1046 16 13 16.8954 13 18C13 19.1046 12.1046 20 11 20H7C5.89543 20 5 19.1046 5 18Z" />
</svg>

