<svg width="53" height="14" viewBox="0 0 53 14" fill="none" xmlns="http://www.w3.org/2000/svg">
<g clip-path="url(#clip0_1_1281)">
<path d="M0.545898 6.00423C3.56045 6.00423 6.00423 3.56045 6.00423 0.545898H7.0959C7.0959 3.56045 9.5397 6.00423 12.5542 6.00423V7.0959C9.5397 7.0959 7.0959 9.5397 7.0959 12.5542H6.00423C6.00423 9.5397 3.56045 7.0959 0.545898 7.0959V6.00423Z" fill="black"/>
</g>
<path d="M22.9255 9.27913C24.4327 9.27913 25.6546 8.05723 25.6546 6.54997C25.6546 5.04269 24.4327 3.8208 22.9255 3.8208C21.4182 3.8208 20.1963 5.04269 20.1963 6.54997C20.1963 8.05723 21.4182 9.27913 22.9255 9.27913Z" fill="black"/>
<path d="M36.0251 9.27913C37.5323 9.27913 38.7542 8.05723 38.7542 6.54997C38.7542 5.04269 37.5323 3.8208 36.0251 3.8208C34.5178 3.8208 33.2959 5.04269 33.2959 6.54997C33.2959 8.05723 34.5178 9.27913 36.0251 9.27913Z" fill="black"/>
<path d="M49.1247 9.27913C50.6319 9.27913 51.8538 8.05723 51.8538 6.54997C51.8538 5.04269 50.6319 3.8208 49.1247 3.8208C47.6174 3.8208 46.3955 5.04269 46.3955 6.54997C46.3955 8.05723 47.6174 9.27913 49.1247 9.27913Z" fill="black"/>
<defs>
<clipPath id="clip0_1_1281">
<rect width="13.1" height="13.1" fill="white"/>
</clipPath>
</defs>
</svg>
