<svg width="14" height="18" viewBox="0 0 14 18" fill="none" xmlns="http://www.w3.org/2000/svg">
<path d="M13.3333 17.5H11.6667V15.8333C11.6667 14.4526 10.5474 13.3333 9.16667 13.3333H4.16667C2.78596 13.3333 1.66667 14.4526 1.66667 15.8333V17.5H0V15.8333C0 13.5322 1.86548 11.6667 4.16667 11.6667H9.16667C11.4678 11.6667 13.3333 13.5322 13.3333 15.8333V17.5ZM6.66667 10C3.90524 10 1.66667 7.76142 1.66667 5C1.66667 2.23857 3.90524 0 6.66667 0C9.42808 0 11.6667 2.23857 11.6667 5C11.6667 7.76142 9.42808 10 6.66667 10ZM6.66667 8.33333C8.50758 8.33333 10 6.84095 10 5C10 3.15905 8.50758 1.66667 6.66667 1.66667C4.82572 1.66667 3.33333 3.15905 3.33333 5C3.33333 6.84095 4.82572 8.33333 6.66667 8.33333Z" fill="black"/>
</svg>
